<?xml version="1.0" standalone="no"?>
<!DOCTYPE svg PUBLIC "-//W3C//DTD SVG 1.1//EN" "http://www.w3.org/Graphics/SVG/1.1/DTD/svg11.dtd" >
<!--
2013-9-30: Created.
-->
<svg>
<metadata>
Created by iconfont
</metadata>
<defs>

<font id="iconfont" horiz-adv-x="1024" >
  <font-face
    font-family="iconfont"
    font-weight="500"
    font-stretch="normal"
    units-per-em="1024"
    ascent="896"
    descent="-128"
  />
    <missing-glyph />
    
    <glyph glyph-name="x" unicode="x" horiz-adv-x="1001"
d="M281 543q-27 -1 -53 -1h-83q-18 0 -36.5 -6t-32.5 -18.5t-23 -32t-9 -45.5v-76h912v41q0 16 -0.5 30t-0.5 18q0 13 -5 29t-17 29.5t-31.5 22.5t-49.5 9h-133v-97h-438v97zM955 310v-52q0 -23 0.5 -52t0.5 -58t-10.5 -47.5t-26 -30t-33 -16t-31.5 -4.5q-14 -1 -29.5 -0.5
t-29.5 0.5h-32l-45 128h-439l-44 -128h-29h-34q-20 0 -45 1q-25 0 -41 9.5t-25.5 23t-13.5 29.5t-4 30v167h911zM163 247q-12 0 -21 -8.5t-9 -21.5t9 -21.5t21 -8.5q13 0 22 8.5t9 21.5t-9 21.5t-22 8.5zM316 123q-8 -26 -14 -48q-5 -19 -10.5 -37t-7.5 -25t-3 -15t1 -14.5
t9.5 -10.5t21.5 -4h37h67h81h80h64h36q23 0 34 12t2 38q-5 13 -9.5 30.5t-9.5 34.5q-5 19 -11 39h-368zM336 498v228q0 11 2.5 23t10 21.5t20.5 15.5t34 6h188q31 0 51.5 -14.5t20.5 -52.5v-227h-327z" />
    

    
    <glyph glyph-name="weibiaoti4" unicode="&#58901;" d="M504.704 337.344c161.536 0 292.544 125.056 292.544 279.36C797.248 770.88 666.24 896 504.704 896 343.104 896 212.096 770.88 212.096 616.64 212.096 462.4 343.104 337.344 504.704 337.344L504.704 337.344zM512 310.848c-226.176 0-512-175.104-512-391.104L0-128l1024 0 0 47.744C1024 135.744 738.176 310.848 512 310.848L512 310.848z"  horiz-adv-x="1024" />

    
    <glyph glyph-name="weibiaoti1" unicode="&#58910;" d="M512 896C229.248 896 0 666.816 0 384s229.248-512 512-512 512 229.248 512 512S794.752 896 512 896zM783.488 203.008l-90.496-90.496L512 293.504l-180.992-180.992-90.496 90.496L421.504 384 240.512 565.056l90.496 90.496L512 474.56l180.992 181.056 90.496-90.496L602.496 384 783.488 203.008z"  horiz-adv-x="1024" />

    
    <glyph glyph-name="zuo" unicode="&#58916;" d="M512 896c-282.752 0-512-229.248-512-512 0-282.816 229.248-512 512-512s512 229.184 512 512c0 282.752-229.248 512-512 512zM621.248 157.696l-45.248-45.248-271.488 271.552 271.488 271.552 45.248-45.248-226.24-226.304 226.24-226.304z"  horiz-adv-x="1024" />

    
    <glyph glyph-name="you" unicode="&#58917;" d="M512-128c282.752 0 512 229.248 512 512 0 282.816-229.248 512-512 512s-512-229.184-512-512c0-282.752 229.248-512 512-512zM402.752 610.304l45.248 45.248 271.488-271.552-271.488-271.488-45.248 45.248 226.24 226.24-226.24 226.304z"  horiz-adv-x="1024" />

    
    <glyph glyph-name="shang" unicode="&#58918;" d="M1024.064 384c0 282.752-229.248 512-512 512-282.816 0-512-229.248-512-512s229.184-512 512-512c282.752 0 512 229.248 512 512zM285.76 274.752l-45.248 45.248 271.552 271.488 271.488-271.488-45.248-45.248-226.24 226.24-226.304-226.24z"  horiz-adv-x="1024" />

    
    <glyph glyph-name="xia" unicode="&#58919;" d="M0 384c0-282.752 229.248-512 512-512s512 229.248 512 512-229.184 512-512 512c-282.752 0-512-229.248-512-512zM738.24 493.248l45.248-45.248-271.488-271.488-271.488 271.488 45.248 45.248 226.24-226.24 226.24 226.24z"  horiz-adv-x="1024" />

    
    <glyph glyph-name="fanhui" unicode="&#58920;" d="M58.56 564.032l330.24-329.408L388.8 434.24c99.968 0 354.688-2.304 354.688-273.92 0-142.208-97.28-260.8-226.624-288.32 207.744 29.248 368.448 212.032 368.448 435.52 0 415.104-427.712 418.624-496.576 418.624L388.736 896 58.56 564.032 58.56 564.032z"  horiz-adv-x="1024" />

    
    <glyph glyph-name="quanbu" unicode="&#58921;" d="M0 704h1024v-128h-1024v128zM0 448h1024v-128h-1024v128zM0 192h1024v-128h-1024v128z"  horiz-adv-x="1024" />

    
    <glyph glyph-name="shanchu" unicode="&#58922;" d="M704 768 704 896 320 896 320 768 64 768 64 640 960 640 960 768ZM128-128l768 0L896 576 128 576 128-128zM576 384l128 0 0-320L576 64 576 384zM320 384l128 0 0-320L320 64 320 384z"  horiz-adv-x="1024" />

    
    <glyph glyph-name="xiaoxi" unicode="&#58923;" d="M512 896C264.576 896 64 695.488 64 448c0-84.16 23.616-162.688 64-229.888L128-128l178.24 178.24C367.936 18.368 437.76 0 512 0c247.424 0 448 200.64 448 448C960 695.488 759.424 896 512 896zM320 384C284.608 384 256 412.672 256 448s28.608 64 64 64 64-28.672 64-64S355.392 384 320 384zM512 384C476.608 384 448 412.672 448 448s28.608 64 64 64 64-28.672 64-64S547.392 384 512 384zM704 384c-35.392 0-64 28.672-64 64s28.608 64 64 64 64-28.672 64-64S739.392 384 704 384z"  horiz-adv-x="1024" />

    
    <glyph glyph-name="shangchuan" unicode="&#58933;" d="M128 512 128 512 0 512 0 384 0-128 0.384-128 128-128 896.32-128 1022.976-128 1024-128 1024 384 1024 512 896.32 512 896 512 896 384 896 0 128 0ZM448 256l128 0 0-128-128 0 0 128ZM448 640 448 384 576 384 576 640 576.192 640 640 640 768.128 640 512.128 896 256.128 640 320 640Z"  horiz-adv-x="1024" />

    
    <glyph glyph-name="xiazai" unicode="&#58934;" d="M128 512 128 512 0 512 0 384 0-128 0.384-128 128-128 896.32-128 1022.976-128 1024-128 1024 384 1024 512 896.32 512 896 512 896 384 896 0 128 0ZM448.256 896l128 0 0-128-128 0 0 128ZM768.128 384 704.256 384 576 384 576 640 448 640 448 384 384.256 384 256.128 384 512.128 128Z"  horiz-adv-x="1024" />

    
    <glyph glyph-name="tuichu" unicode="&#58935;" d="M512 0 128 0 128 768 512 768 512 640 640 640 640 768 640 896 512 896 0 896 0 895.616 0 768 0-0.32 0-126.976 0-128 512-128 640-128 640-0.32 640 128 512 128ZM768 256 768 127.872 1024 383.872 768 639.872 768 576 768 448 256 448 256 320 768 320 768 319.808Z"  horiz-adv-x="1024" />

    
    <glyph glyph-name="shezhi" unicode="&#58954;" d="M1020.096 455.168c-4.032 22.272-25.472 44.992-47.744 49.984l-16.704 3.776a166.144 166.144 0 0 0-95.936 75.904 164.928 164.928 0 0 0-17.6 121.856l5.12 15.68c6.72 21.632-1.92 51.584-19.456 66.432 0 0-15.68 13.312-59.84 38.784-44.096 25.28-63.168 32.256-63.168 32.256-21.568 7.872-51.648 0.384-67.264-16.256l-11.648-12.416c-29.76-28.096-69.632-45.184-113.792-45.184s-84.48 17.28-114.24 45.568L386.624 843.648C371.136 860.288 340.864 867.712 319.36 859.904c0 0-19.328-6.976-63.424-32.256-44.16-25.728-59.648-38.976-59.648-38.976-17.472-14.72-26.048-44.416-19.456-66.24l4.8-15.872a166.336 166.336 0 0 0-17.664-121.664A165.12 165.12 0 0 0 67.456 508.8l-16.064-3.584c-22.08-5.056-43.776-27.52-47.808-49.984 0 0-3.584-20.032-3.584-71.04s3.584-71.04 3.584-71.04c4.032-22.528 25.472-45.056 47.808-50.112l15.68-3.584c39.36-11.648 74.688-37.76 96.768-76.288 22.08-38.336 27.328-81.92 17.664-121.792l-4.608-15.488c-6.592-21.632 2.048-51.648 19.456-66.432 0 0 15.68-13.184 59.84-38.656s63.232-32.384 63.232-32.384c21.44-7.808 51.584-0.384 67.264 16.256l11.008 11.904c29.888 28.288 70.08 45.568 114.432 45.568s84.736-17.472 114.432-45.824l11.072-11.776c15.424-16.704 45.696-24.128 67.264-16.384 0 0 19.2 7.104 63.424 32.384 44.096 25.472 59.584 38.72 59.584 38.72 17.472 14.656 26.176 44.544 19.456 66.368l-4.736 16.128a165.952 165.952 0 0 0 114.368 197.504l15.744 3.648c22.016 4.992 43.712 27.52 47.744 49.984 0 0 3.648 20.032 3.648 71.04-0.384 51.2-4.032 71.232-4.032 71.232z m-508.032-275.2a204.032 204.032 0 1 0 0 408.064 204.16 204.16 0 0 0 204.096-204.16 204.16 204.16 0 0 0-204.096-203.904z"  horiz-adv-x="1024" />

    
    <glyph glyph-name="BBDhezi" unicode="&#58956;" d="M535.872 364.032L534.144-128 1024 120.256V612.288zM512 896L25.6 650.688 512 403.968l486.464 246.72zM0 120.256l483.008-243.84 1.664 490.56L0 612.288z"  horiz-adv-x="1024" />

    
    <glyph glyph-name="wenjian" unicode="&#59002;" d="M170.666667 839.111111h512l170.666666-170.666667v-739.555555H170.666667V839.111111z m56.888889-56.888889v-796.444444h568.888888V645.688889L659.911111 782.222222H227.555556zM739.555556 213.333333v-56.888889H284.444444v56.888889h455.111112z m0 170.666667v-56.888889H284.444444V384h455.111112z m-113.777778 227.555556V839.111111h-56.888889v-284.444444h284.444444V611.555556h-227.555555z"  horiz-adv-x="1024" />

    
    <glyph glyph-name="wenjianjia" unicode="&#59004;" d="M56.888889 725.333333h284.444444l113.777778-113.777777h512v-625.777778H56.888889V725.333333z m56.888889-682.666666h796.444444V554.666667H432.355556l-113.777778 113.777777H113.777778v-625.777777z"  horiz-adv-x="1024" />

    
    <glyph glyph-name="xinwenjianjia" unicode="&#59006;" d="M910.222222 440.888889h56.888889V668.444444H455.111111L341.333333 782.222222H56.888889v-739.555555h512v56.888889H113.777778V725.333333h204.8l113.777778-113.777777H910.222222v-170.666667zM113.777778 99.555556V725.333333h204.8l113.777778-113.777777H910.222222v-170.666667h56.888889V668.444444H455.111111L341.333333 782.222222H56.888889v-739.555555h512v56.888889H113.777778zM739.555556 270.222222h-170.666667v-56.888889h170.666667v-170.666666h56.888888v170.666666h170.666667v56.888889h-170.666667V440.888889h-56.888888z"  horiz-adv-x="1024" />

    
    <glyph glyph-name="kaiwenjianjia" unicode="&#59011;" d="M853.333333 554.666667v-113.777778h56.888889V611.555556H455.111111L341.333333 725.333333H56.888889v-739.555555l56.888889 28.444444V668.444444h204.8l113.777778-113.777777H853.333333zM1024 497.777778H284.444444l-113.777777-170.666667h56.888889l113.777777 113.777778h671.288889l11.377778 56.888889z m-11.377778-56.888889L910.222222-14.222222H56.888889l17.066667 56.888889h790.755555l91.022222 398.222222h56.888889z"  horiz-adv-x="1024" />

    
    <glyph glyph-name="liebiao" unicode="&#59012;" d="M341.333333 725.333333h568.888889v-113.777777H341.333333zM113.777778 725.333333h113.777778v-113.777777H113.777778zM113.777778 440.888889h113.777778v-113.777778H113.777778zM113.777778 156.444444h113.777778v-113.777777H113.777778zM341.333333 156.444444h568.888889v-113.777777H341.333333zM341.333333 440.888889h568.888889v-113.777778H341.333333z"  horiz-adv-x="1024" />

    
    <glyph glyph-name="moban" unicode="&#59014;" d="M341.333333 327.111111h341.333334v-56.888889H341.333333v56.888889z m0 170.666667h341.333334v-56.888889H341.333333V497.777778z m0 170.666666h341.333334v-56.888888H341.333333V668.444444z m512-625.777777v284.444444h56.888889v-341.333333H113.777778v341.333333h56.888889v-284.444444h682.666666zM227.555556 839.111111h568.888888v-739.555555H227.555556V839.111111z m56.888888-56.888889v-625.777778h455.111112V782.222222H284.444444z"  horiz-adv-x="1024" />

    
    <glyph glyph-name="yewu" unicode="&#59015;" d="M398.222222 497.777778h341.333334v-56.888889H398.222222V497.777778z m0 170.666666h341.333334v-56.888888H398.222222V668.444444zM341.333333 839.111111h455.111111v-56.888889H341.333333V839.111111z m227.555556-625.777778v113.777778h56.888889v-170.666667H398.222222v170.666667h56.888889v-113.777778h113.777778z m-227.555556 113.777778h56.888889v-56.888889H113.777778v56.888889h56.888889V725.333333h56.888889v-398.222222h56.888888V668.444444H227.555556V725.333333h56.888888V839.111111h56.888889v-512z m455.111111 0V839.111111h56.888889v-512h56.888889v-56.888889h-284.444444v56.888889h170.666666z m56.888889-341.333333v284.444444h56.888889v-341.333333H113.777778v341.333333h56.888889v-284.444444h682.666666z"  horiz-adv-x="1024" />

    
    <glyph glyph-name="jihe" unicode="&#59016;" d="M568.888889 327.111111h341.333333v-341.333333h-341.333333v341.333333z m56.888889-284.444444h227.555555v227.555555h-227.555555v-227.555555z m-512 284.444444h341.333333v-341.333333H113.777778v341.333333z m56.888889-284.444444h227.555555v227.555555H170.666667v-227.555555z m398.222222 739.555555h341.333333v-341.333333h-341.333333V782.222222z m56.888889-56.888889v-227.555555h227.555555V725.333333h-227.555555zM113.777778 782.222222h341.333333v-341.333333H113.777778V782.222222z m56.888889-56.888889v-227.555555h227.555555V725.333333H170.666667z"  horiz-adv-x="1024" />

    
    <glyph glyph-name="kejian" unicode="&#59017;" d="M56.888889 384c113.777778 227.555556 267.377778 341.333333 455.111111 341.333333s341.333333-113.777778 455.111111-341.333333c-113.777778-227.555556-261.688889-341.333333-455.111111-341.333333s-341.333333 113.777778-455.111111 341.333333z m455.111111-284.444444c159.288889 0 290.133333 91.022222 392.533333 284.444444-102.4 193.422222-233.244444 284.444444-392.533333 284.444444S221.866667 577.422222 119.466667 384c102.4-193.422222 233.244444-284.444444 392.533333-284.444444zM512 156.444444c-125.155556 0-227.555556 102.4-227.555556 227.555556s102.4 227.555556 227.555556 227.555556 227.555556-102.4 227.555556-227.555556-102.4-227.555556-227.555556-227.555556z m0 56.888889c96.711111 0 170.666667 73.955556 170.666667 170.666667s-73.955556 170.666667-170.666667 170.666667-170.666667-73.955556-170.666667-170.666667 73.955556-170.666667 170.666667-170.666667z"  horiz-adv-x="1024" />

    
    <glyph glyph-name="shuju" unicode="&#59028;" d="M227.555556 782.222222h113.777777v-56.888889H227.555556zM227.555556 440.888889h113.777777v-56.888889H227.555556zM227.555556 99.555556h113.777777v-56.888889H227.555556zM853.333333 839.111111v-170.666667H170.666667V839.111111h682.666666m56.888889 56.888889H113.777778v-284.444444h796.444444V896zM853.333333 497.777778v-170.666667H170.666667V497.777778h682.666666m56.888889 56.888889H113.777778v-284.444445h796.444444V554.666667zM853.333333 156.444444v-170.666666H170.666667v170.666666h682.666666m56.888889 56.888889H113.777778v-284.444444h796.444444v284.444444z"  horiz-adv-x="1024" />

    
    <glyph glyph-name="xinshuju" unicode="&#59029;" d="M227.555556 782.222222h113.777777v-56.888889H227.555556zM227.555556 440.888889h113.777777v-56.888889H227.555556zM227.555556 99.555556h113.777777v-56.888889H227.555556zM853.333333 839.111111v-170.666667H170.666667V839.111111h682.666666m56.888889 56.888889H113.777778v-284.444444h796.444444V896zM455.111111 270.222222H113.777778V554.666667h796.444444v-170.666667h-56.888889V497.777778H170.666667v-170.666667h284.444444zM455.111111-71.111111H113.777778v284.444444h341.333333v-56.888889H170.666667v-170.666666h284.444444zM739.555556 99.555556v-170.666667h-56.888889v170.666667H512v56.888888h170.666667v170.666667h56.888889v-170.666667h170.666666v-56.888888z"  horiz-adv-x="1024" />

    
    <glyph glyph-name="xinjianwenjian" unicode="&#59033;" d="M455.111111-71.111111H170.666667V839.111111h523.377777L853.333333 668.444444v-341.333333h-56.888889V645.688889L671.288889 782.222222H227.555556v-796.444444h227.555555zM853.333333 554.666667h-284.444444V839.111111h56.888889v-227.555555h227.555555zM455.111111 156.444444h398.222222v-56.888888H455.111111zM625.777778 327.111111h56.888889v-398.222222h-56.888889z"  horiz-adv-x="1024" />

    
    <glyph glyph-name="yuncunchu" unicode="&#59036;" d="M398.222222 99.555556v-56.888889h170.666667v56.888889H398.222222z m-199.111111-56.888889C91.022222 42.666667 0 133.688889 0 241.777778 0 344.177778 73.955556 423.822222 170.666667 440.888889c11.377778 159.288889 147.911111 284.444444 312.888889 284.444444s295.822222-125.155556 312.888888-284.444444c96.711111-11.377778 170.666667-96.711111 170.666667-199.111111 0-108.088889-91.022222-199.111111-199.111111-199.111111h-568.888889z m193.422222 341.333333l91.022223 91.022222L574.577778 384H568.888889v-284.444444h56.888889V332.8l68.266666-68.266667 39.822223 39.822223L483.555556 554.666667 227.555556 298.666667l39.822222-39.822223L341.333333 332.8V99.555556h56.888889V384h-5.688889z m375.466667-284.444444c79.644444 0 142.222222 62.577778 142.222222 142.222222 0 73.955556-51.2 130.844444-125.155555 142.222222l-45.511111 5.688889v45.511111C728.177778 566.044444 614.4 668.444444 483.555556 668.444444S238.933333 566.044444 227.555556 435.2l-5.688889-45.511111-39.822223-5.688889C108.088889 372.622222 56.888889 315.733333 56.888889 241.777778 56.888889 162.133333 119.466667 99.555556 199.111111 99.555556h568.888889z"  horiz-adv-x="1024" />

    
    <glyph glyph-name="bukejian" unicode="&#59039;" d="M56.888889 384c113.777778 227.555556 267.377778 341.333333 455.111111 341.333333s341.333333-113.777778 455.111111-341.333333c-113.777778-227.555556-261.688889-341.333333-455.111111-341.333333s-341.333333 113.777778-455.111111 341.333333z m455.111111-284.444444c159.288889 0 290.133333 91.022222 392.533333 284.444444-102.4 193.422222-233.244444 284.444444-392.533333 284.444444S221.866667 577.422222 119.466667 384c102.4-193.422222 233.244444-284.444444 392.533333-284.444444zM512 156.444444c-125.155556 0-227.555556 102.4-227.555556 227.555556s102.4 227.555556 227.555556 227.555556 227.555556-102.4 227.555556-227.555556-102.4-227.555556-227.555556-227.555556z m0 56.888889c96.711111 0 170.666667 73.955556 170.666667 170.666667s-73.955556 170.666667-170.666667 170.666667-170.666667-73.955556-170.666667-170.666667 73.955556-170.666667 170.666667-170.666667zM853.902222 1.820444L129.877333 725.902222l40.220445 40.220445L894.122667 42.097778z"  horiz-adv-x="1024" />

    
    <glyph glyph-name="fabu" unicode="&#59040;" d="M915.911111 765.155556l-39.822222 39.822222L398.222222 253.155556V-14.222222h56.888889v244.622222zM887.466667 793.6l-96.711111-699.733333-250.311112 147.911111-28.444444-51.2 318.577778-193.422222L961.422222 890.311111 62.577778 440.888889 341.333333 304.355556l28.444445 51.2L193.422222 440.888889z"  horiz-adv-x="1024" />

    
    <glyph glyph-name="zanting" unicode="&#59053;" d="M512-71.111111c-250.311111 0-455.111111 204.8-455.111111 455.111111s204.8 455.111111 455.111111 455.111111 455.111111-204.8 455.111111-455.111111-204.8-455.111111-455.111111-455.111111z m0 56.888889c221.866667 0 398.222222 176.355556 398.222222 398.222222s-176.355556 398.222222-398.222222 398.222222-398.222222-176.355556-398.222222-398.222222 176.355556-398.222222 398.222222-398.222222zM341.333333 554.666667h113.777778v-398.222223H341.333333zM568.888889 554.666667h113.777778v-398.222223h-113.777778z"  horiz-adv-x="1024" />

    
    <glyph glyph-name="tingzhi" unicode="&#59054;" d="M512-71.111111c-250.311111 0-455.111111 204.8-455.111111 455.111111s204.8 455.111111 455.111111 455.111111 455.111111-204.8 455.111111-455.111111-204.8-455.111111-455.111111-455.111111z m0 56.888889c221.866667 0 398.222222 176.355556 398.222222 398.222222s-176.355556 398.222222-398.222222 398.222222-398.222222-176.355556-398.222222-398.222222 176.355556-398.222222 398.222222-398.222222zM341.333333 554.666667h341.333334v-341.333334H341.333333z"  horiz-adv-x="1024" />

    
    <glyph glyph-name="bofang" unicode="&#59055;" d="M512-71.111111c-250.311111 0-455.111111 204.8-455.111111 455.111111s204.8 455.111111 455.111111 455.111111 455.111111-204.8 455.111111-455.111111-204.8-455.111111-455.111111-455.111111z m0 56.888889c221.866667 0 398.222222 176.355556 398.222222 398.222222s-176.355556 398.222222-398.222222 398.222222-398.222222-176.355556-398.222222-398.222222 176.355556-398.222222 398.222222-398.222222zM796.444444 384l-455.111111-227.555556V611.555556z"  horiz-adv-x="1024" />

    
    <glyph glyph-name="xinyonghu" unicode="&#59058;" d="M512 270.222222c-159.288889 0-284.444444 125.155556-284.444444 284.444445s125.155556 284.444444 284.444444 284.444444 284.444444-125.155556 284.444444-284.444444-125.155556-284.444444-284.444444-284.444445z m0 56.888889c125.155556 0 227.555556 102.4 227.555556 227.555556s-102.4 227.555556-227.555556 227.555555-227.555556-102.4-227.555556-227.555555 102.4-227.555556 227.555556-227.555556zM796.444444-128h-56.888888v398.222222h56.888888v-398.222222z m-227.555555 170.666667v56.888889h398.222222v-56.888889h-398.222222zM512 270.222222c-221.866667 0-398.222222-176.355556-398.222222-398.222222H56.888889c0 250.311111 204.8 455.111111 455.111111 455.111111"  horiz-adv-x="1024" />

    
    <glyph glyph-name="baocun" unicode="&#59062;" d="M113.777778 782.222222h796.444444v-796.444444H113.777778V782.222222z m56.888889-56.888889v-682.666666h682.666666V725.333333H170.666667zM682.666667 440.888889V782.222222h56.888889v-398.222222H284.444444V782.222222h56.888889v-341.333333h341.333334z m0 341.333333h56.888889v-398.222222H284.444444V782.222222h56.888889v-341.333333h341.333334V782.222222zM568.888889 668.444444h56.888889v-170.666666h-56.888889z"  horiz-adv-x="1024" />

    
    <glyph glyph-name="shezhi1" unicode="&#59063;" d="M568.888889 782.222222v-113.777778l39.822222-11.377777c11.377778-5.688889 17.066667-5.688889 28.444445-11.377778l34.133333-17.066667 28.444444 28.444445 51.2 51.2 45.511111-45.511111 39.822223-39.822223-56.888889-56.888889-28.444445-28.444444 17.066667-34.133333c5.688889-5.688889 5.688889-17.066667 11.377778-22.755556l17.066666-39.822222h113.777778v-113.777778h-113.777778l-11.377777-39.822222c-5.688889-11.377778-5.688889-17.066667-11.377778-28.444445l-17.066667-34.133333 28.444445-28.444444 56.888889-56.888889-79.644445-79.644445-56.888889 56.888889-28.444444 28.444445-34.133334-17.066667c-11.377778-5.688889-17.066667-5.688889-28.444444-11.377778l-45.511111-17.066666v-113.777778H455.111111v113.777778l-39.822222 11.377777c-5.688889 0-17.066667 5.688889-22.755556 11.377778l-34.133333 17.066667-28.444444-28.444445-56.888889-56.888889-39.822223 45.511112-39.822222 39.822222 51.2 51.2 28.444445 28.444444-17.066667 34.133334c-5.688889 11.377778-5.688889 17.066667-11.377778 28.444444L227.555556 327.111111H113.777778V440.888889h113.777778l11.377777 39.822222c5.688889 5.688889 11.377778 17.066667 17.066667 28.444445l17.066667 34.133333-28.444445 28.444444-51.2 51.2 79.644445 79.644445 51.2-51.2 28.444444-28.444445 34.133333 17.066667c11.377778 5.688889 22.755556 11.377778 28.444445 11.377778L455.111111 668.444444V782.222222h113.777778m56.888889 56.888889H398.222222v-130.844444l-34.133333-17.066667L273.066667 782.222222 113.777778 622.933333l91.022222-91.022222-17.066667-34.133333H56.888889v-227.555556h130.844444c5.688889-11.377778 11.377778-22.755556 11.377778-34.133333l-96.711111-96.711111 79.644444-79.644445 79.644445-79.644444 96.711111 96.711111c11.377778-5.688889 17.066667-5.688889 28.444444-11.377778V-71.111111h227.555556v130.844444c11.377778 5.688889 22.755556 11.377778 34.133333 11.377778l96.711111-96.711111 159.288889 159.288889-96.711111 96.711111c5.688889 11.377778 11.377778 22.755556 11.377778 34.133333H967.111111V497.777778h-130.844444c-5.688889 11.377778-5.688889 17.066667-11.377778 28.444444l96.711111 96.711111-79.644444 79.644445L762.311111 782.222222l-96.711111-96.711111c-11.377778 5.688889-22.755556 11.377778-34.133333 11.377778V839.111111H625.777778zM512 213.333333c-96.711111 0-170.666667 73.955556-170.666667 170.666667s73.955556 170.666667 170.666667 170.666667 170.666667-73.955556 170.666667-170.666667-73.955556-170.666667-170.666667-170.666667z m0 56.888889c62.577778 0 113.777778 51.2 113.777778 113.777778s-51.2 113.777778-113.777778 113.777778-113.777778-51.2-113.777778-113.777778 51.2-113.777778 113.777778-113.777778z"  horiz-adv-x="1024" />

    
    <glyph glyph-name="guanbi" unicode="&#59068;" d="M153.998222 782.222222L910.222222 25.998222l-40.220444-40.220444L113.777778 742.001778zM870.001778 782.222222l40.220444-40.220444L153.998222-14.222222 113.777778 25.998222z"  horiz-adv-x="1024" />

    
    <glyph glyph-name="tuichu1" unicode="&#59081;" d="M113.777778 839.111111h56.888889v-910.222222H113.777778zM113.777778 839.111111h56.888889v-910.222222H113.777778zM739.555556 839.111111h56.888888v-170.666667h-56.888888zM739.555556 839.111111h56.888888v-170.666667h-56.888888zM739.555556 42.666667h56.888888v-170.666667h-56.888888zM739.555556 42.666667h56.888888v-170.666667h-56.888888zM113.777778 839.111111h625.777778v-56.888889H113.777778zM113.777778 839.111111h625.777778v-56.888889H113.777778zM113.777778-71.111111h625.777778v-56.888889H113.777778zM113.777778-71.111111h625.777778v-56.888889H113.777778zM284.444444 384h568.888889v-56.888889H284.444444zM284.444444 384h568.888889v-56.888889H284.444444zM904.533333 332.8l17.066667 22.755556L722.488889 554.666667l-39.822222-39.822223 159.288889-159.288888-159.288889-164.977778 39.822222-39.822222z"  horiz-adv-x="1024" />

    
    <glyph glyph-name="tianjia" unicode="&#59089;" d="M455.111111 782.222222h56.888889v-853.333333H455.111111zM56.888889 384h853.333333v-56.888889H56.888889z"  horiz-adv-x="1024" />

    
    <glyph glyph-name="daochu" unicode="&#59103;" d="M910.222222 42.666667V440.888889h56.888889v-455.111111H113.777778V440.888889h56.888889v-398.222222h739.555555z m56.888889 0l-56.888889-56.888889v56.888889h56.888889zM170.666667-14.222222l-56.888889 56.888889h56.888889v-56.888889z m739.555555 455.111111h56.888889v-455.111111H113.777778V440.888889h56.888889v-398.222222h739.555555V440.888889zM170.666667-14.222222l-56.888889 56.888889h56.888889v-56.888889z m796.444444 56.888889l-56.888889-56.888889v56.888889h56.888889zM512 782.222222h56.888889v-625.777778H512zM545.166222 839.850667l249.400889-249.400889-40.220444-40.220445-249.400889 249.400889zM294.513778 588.003556L543.857778 837.404444l40.220444-40.220444-249.400889-249.400889z"  horiz-adv-x="1024" />

    
    <glyph glyph-name="daoru" unicode="&#59104;" d="M910.222222 42.666667V440.888889h56.888889v-455.111111H113.777778V440.888889h56.888889v-398.222222h739.555555z m56.888889 0l-56.888889-56.888889v56.888889h56.888889zM170.666667-14.222222l-56.888889 56.888889h56.888889v-56.888889z m739.555555 455.111111h56.888889v-455.111111H113.777778V440.888889h56.888889v-398.222222h739.555555V440.888889zM170.666667-14.222222l-56.888889 56.888889h56.888889v-56.888889z m796.444444 56.888889l-56.888889-56.888889v56.888889h56.888889zM512 839.111111h56.888889v-625.777778H512zM504.945778 195.925333l249.400889 249.400889 40.220444-40.220444-249.400889-249.400889zM334.734222 447.772444l249.400889-249.400888-40.220444-40.220445-249.400889 249.400889z"  horiz-adv-x="1024" />

    
    <glyph glyph-name="fanhui1" unicode="&#59113;" d="M284.444444-14.222222h341.333334v-56.888889H284.444444zM568.888889 611.555556V668.444444c204.8 0 398.222222-164.977778 398.222222-369.777777S802.133333-71.111111 597.333333-71.111111v56.888889c170.666667 0 312.888889 142.222222 312.888889 312.888889S739.555556 611.555556 568.888889 611.555556z m0 56.888888c204.8 0 398.222222-164.977778 398.222222-369.777777S802.133333-71.111111 597.333333-71.111111v56.888889c170.666667 0 312.888889 142.222222 312.888889 312.888889S739.555556 611.555556 568.888889 611.555556V668.444444zM113.777778 668.444444h455.111111v-56.888888H113.777778zM95.402667 682.268444l201.159111-201.159111L256.284444 440.888889 55.182222 642.048zM297.130667 805.774222L95.971556 604.728889 55.751111 644.892444 256.853333 845.937778z"  horiz-adv-x="1024" />

    
    <glyph glyph-name="shuaxin" unicode="&#59114;" d="M836.266667 133.688889C768 42.666667 659.911111-14.222222 540.444444-14.222222 335.644444-14.222222 170.666667 150.755556 170.666667 355.555556S335.644444 725.333333 540.444444 725.333333c176.355556 0 318.577778-119.466667 358.4-284.444444h56.888889c-39.822222 193.422222-210.488889 341.333333-415.288889 341.333333C307.2 782.222222 113.777778 588.8 113.777778 355.555556S307.2-71.111111 540.444444-71.111111c136.533333 0 261.688889 62.577778 335.644445 164.977778l-39.822222 39.822222zM910.222222 782.222222v-284.444444h-284.444444v-56.888889h341.333333V782.222222z"  horiz-adv-x="1024" />

    
    <glyph glyph-name="anzhuangbao" unicode="&#59119;" d="M56.888889 611.555556h853.333333v-682.666667H56.888889V611.555556z m56.888889-56.888889v-568.888889h739.555555V554.666667H113.777778zM199.111111 725.333333L125.155556 611.555556H56.888889l113.777778 170.666666h625.777777l113.777778-170.666666h-68.266666l-73.955556 113.777777h-568.888889zM125.155556 611.555556H56.888889l113.777778 170.666666h625.777777l113.777778-170.666666h-68.266666l-73.955556 113.777777h-568.888889L125.155556 611.555556zM227.555556 292.977778l39.822222 34.133333 221.866666-193.422222 216.177778 193.422222 39.822222-34.133333-256-227.555556zM455.111111 497.777778h56.888889v-369.777778H455.111111z"  horiz-adv-x="1024" />

    
    <glyph glyph-name="fenxiang" unicode="&#59120;" d="M284.444444 611.555556C159.288889 611.555556 56.888889 509.155556 56.888889 384s102.4-227.555556 227.555555-227.555556 227.555556 102.4 227.555556 227.555556-102.4 227.555556-227.555556 227.555556m0-398.222223c-96.711111 0-170.666667 73.955556-170.666666 170.666667s73.955556 170.666667 170.666666 170.666667 170.666667-73.955556 170.666667-170.666667-73.955556-170.666667-170.666667-170.666667M824.888889 839.111111C745.244444 839.111111 682.666667 776.533333 682.666667 696.888889S745.244444 554.666667 824.888889 554.666667 967.111111 617.244444 967.111111 696.888889 904.533333 839.111111 824.888889 839.111111m0-227.555555c-45.511111 0-85.333333 39.822222-85.333333 85.333333S779.377778 782.222222 824.888889 782.222222s85.333333-39.822222 85.333333-85.333333S870.4 611.555556 824.888889 611.555556M824.888889 213.333333c-79.644444 0-142.222222-62.577778-142.222222-142.222222s62.577778-142.222222 142.222222-142.222222 142.222222 62.577778 142.222222 142.222222-62.577778 142.222222-142.222222 142.222222m0-227.555555c-45.511111 0-85.333333 39.822222-85.333333 85.333333s39.822222 85.333333 85.333333 85.333333 85.333333-39.822222 85.333333-85.333333-39.822222-85.333333-85.333333-85.333333M452.380444 317.781333l295.594667-170.666666-28.444444-49.265778-295.594667 170.666667zM749.511111 617.699556l-295.594667-170.666667-28.444444 49.265778 295.594667 170.666666z"  horiz-adv-x="1024" />

    
    <glyph glyph-name="xihuan" unicode="&#59121;" d="M728.177778 782.222222c-130.844444 0-210.488889-102.4-210.488889-102.4S449.422222 782.222222 307.2 782.222222 56.888889 702.577778 56.888889 509.155556c0-273.066667 460.8-568.888889 460.8-568.888889S967.111111 253.155556 967.111111 503.466667C967.111111 708.266667 836.266667 782.222222 728.177778 782.222222M517.688889 8.533333S113.777778 287.288889 113.777778 509.155556c0 142.222222 96.711111 221.866667 204.8 221.866666C426.666667 731.022222 517.688889 611.555556 517.688889 611.555556s108.088889 119.466667 204.8 119.466666c96.711111 0 193.422222-73.955556 193.422222-227.555555-5.688889-216.177778-398.222222-494.933333-398.222222-494.933334"  horiz-adv-x="1024" />

    
    <glyph glyph-name="shoucang" unicode="&#59122;" d="M22.755556 503.466667L341.333333 548.977778 483.555556 839.111111 625.777778 548.977778l318.577778-45.511111-227.555556-221.866667 56.888889-318.577778-284.444445 147.911111-284.444444-147.911111 56.888889 318.577778L22.755556 503.466667z m460.8-324.266667l210.488888-108.088889-39.822222 233.244445 170.666667 164.977777-238.933333 28.444445-102.4 210.488889L381.155556 497.777778l-233.244445-34.133334 170.666667-164.977777-39.822222-233.244445 204.8 113.777778z"  horiz-adv-x="1024" />

    
    <glyph glyph-name="youjian" unicode="&#59127;" d="M56.888889 725.333333h910.222222v-682.666666H56.888889V725.333333z m56.888889-56.888889v-568.888888h796.444444V668.444444H113.777778zM512 173.511111L62.577778 622.933333l39.822222 39.822223L512 253.155556l409.6 409.6 39.822222-39.822223zM341.447111 371.256889l40.220445-40.220445-277.617778-277.560888-40.163556 40.220444zM676.352 374.499556l281.6-281.6-40.220444-40.220445-281.6 281.6z"  horiz-adv-x="1024" />

    
    <glyph glyph-name="weizhi" unicode="&#59128;" d="M512 327.111111c-96.711111 0-170.666667 73.955556-170.666667 170.666667s73.955556 170.666667 170.666667 170.666666 170.666667-73.955556 170.666667-170.666666-73.955556-170.666667-170.666667-170.666667z m0 56.888889c62.577778 0 113.777778 51.2 113.777778 113.777778s-51.2 113.777778-113.777778 113.777778-113.777778-51.2-113.777778-113.777778 51.2-113.777778 113.777778-113.777778zM512-71.111111C244.622222 145.066667 113.777778 332.8 113.777778 497.777778c0 244.622222 187.733333 398.222222 398.222222 398.222222s398.222222-153.6 398.222222-398.222222c0-164.977778-130.844444-352.711111-398.222222-568.888889z m341.333333 568.888889c0 199.111111-147.911111 341.333333-341.333333 341.333333S170.666667 696.888889 170.666667 497.777778c0-136.533333 113.777778-301.511111 341.333333-494.933334 227.555556 193.422222 341.333333 358.4 341.333333 494.933334z"  horiz-adv-x="1024" />

    
    <glyph glyph-name="shequ" unicode="&#59129;" d="M853.333333 327.111111h113.777778v-56.888889h-113.777778v56.888889z m56.888889 455.111111h56.888889v-455.111111h-56.888889V782.222222z m-341.333333-284.444444h113.777778v-113.777778h-113.777778V497.777778zM199.111111 839.111111H967.111111v-56.888889H227.555556v-56.888889H170.666667V839.111111h28.444444zM398.222222 497.777778h113.777778v-113.777778H398.222222V497.777778zM227.555556 497.777778h113.777777v-113.777778H227.555556V497.777778z m159.288888-341.333334L170.666667-14.222222v170.666666H56.888889V725.333333h796.444444v-568.888889H386.844444z m-22.755555 56.888889H796.444444V668.444444H113.777778v-455.111111h113.777778v-108.088889L364.088889 213.333333z"  horiz-adv-x="1024" />

    
    <glyph glyph-name="fankui" unicode="&#59130;" d="M386.844444 99.555556L170.666667-71.111111v170.666667H56.888889V782.222222h910.222222v-682.666666H386.844444z m-22.755555 56.888888H910.222222V725.333333H113.777778v-568.888889h113.777778v-108.088888L364.088889 156.444444zM227.555556 384h568.888888v-56.888889H227.555556V384z m0 170.666667h568.888888v-56.888889H227.555556V554.666667z"  horiz-adv-x="1024" />

    
    <glyph glyph-name="guanliyuan" unicode="&#59131;" d="M512 327.111111c-159.288889 0-284.444444 125.155556-284.444444 284.444445s125.155556 284.444444 284.444444 284.444444 284.444444-125.155556 284.444444-284.444444-125.155556-284.444444-284.444444-284.444445z m0 56.888889c125.155556 0 227.555556 102.4 227.555556 227.555556s-102.4 227.555556-227.555556 227.555555-227.555556-102.4-227.555556-227.555555 102.4-227.555556 227.555556-227.555556zM824.888889-128c-79.644444 0-142.222222 62.577778-142.222222 142.222222s62.577778 142.222222 142.222222 142.222222 142.222222-62.577778 142.222222-142.222222-62.577778-142.222222-142.222222-142.222222z m0 56.888889c45.511111 0 85.333333 39.822222 85.333333 85.333333s-39.822222 85.333333-85.333333 85.333334-85.333333-39.822222-85.333333-85.333334 39.822222-85.333333 85.333333-85.333333zM796.444444 440.888889h56.888889v-284.444445h-56.888889zM853.333333 440.888889h113.777778v-56.888889h-113.777778zM853.333333 327.111111h113.777778v-56.888889h-113.777778zM512 384l-51.2-62.577778C261.688889 298.666667 113.777778 133.688889 113.777778-71.111111H56.888889v56.888889h5.688889c28.444444 221.866667 216.177778 398.222222 449.422222 398.222222z m0 0l-51.2-62.577778C261.688889 298.666667 113.777778 133.688889 113.777778-71.111111H56.888889v56.888889h5.688889c28.444444 221.866667 216.177778 398.222222 449.422222 398.222222z"  horiz-adv-x="1024" />

    
    <glyph glyph-name="biaoge" unicode="&#59132;" d="M56.888889 839.111111v-910.222222h910.222222V839.111111H56.888889z m56.888889-227.555555h227.555555v-170.666667H113.777778V611.555556z m512-170.666667H398.222222V611.555556h227.555556v-170.666667z m0-56.888889v-170.666667H398.222222V384h227.555556zM113.777778 384h227.555555v-170.666667H113.777778V384z m0-398.222222v170.666666h227.555555v-170.666666H113.777778z m284.444444 0v170.666666h227.555556v-170.666666H398.222222z m512 0h-227.555555v170.666666h227.555555v-170.666666z m0 227.555555h-227.555555V384h227.555555v-170.666667z m0 227.555556h-227.555555V611.555556h227.555555v-170.666667zM113.777778 668.444444V782.222222h796.444444v-113.777778H113.777778z"  horiz-adv-x="1024" />

    
    <glyph glyph-name="yibiaoban" unicode="&#59133;" d="M56.888889 839.111111h910.222222v-910.222222H56.888889V839.111111z m56.888889-56.888889v-796.444444h796.444444V782.222222H113.777778zM227.555556 668.444444h113.777777v-625.777777H227.555556zM455.111111 497.777778h113.777778v-455.111111H455.111111zM682.666667 384h113.777777v-341.333333h-113.777777z"  horiz-adv-x="1024" />

    
    <glyph glyph-name="shujubiao" unicode="&#59134;" d="M398.222222 440.888889h56.888889v-398.222222H398.222222zM568.888889 327.111111h56.888889v-284.444444h-56.888889zM739.555556 497.777778h56.888888v-455.111111h-56.888888zM56.888889 839.111111h910.222222v-910.222222H56.888889V839.111111z m56.888889-56.888889v-796.444444h796.444444V782.222222H113.777778zM227.555556 270.222222h56.888888v-227.555555H227.555556zM193.422222 361.244444l-45.511111 45.511112 244.622222 238.933333 170.666667-113.777778 210.488889 216.177778 45.511111-45.511111-244.622222-238.933334-170.666667 113.777778z"  horiz-adv-x="1024" />

    
    <glyph glyph-name="shujuji" unicode="&#59135;" d="M483.555556 839.111111L910.222222 611.555556v-455.111112l-426.666666-227.555555L56.888889 156.444444V611.555556l426.666667 227.555555zM113.777778 577.422222v-386.844444l369.777778-193.422222 369.777777 193.422222V577.422222L483.555556 770.844444 113.777778 577.422222zM494.933333 355.555556h-28.444444l-398.222222 187.733333 28.444444 51.2 386.844445-182.044445 386.844444 182.044445 22.755556-51.2zM455.111111 372.622222h56.888889V-14.222222H455.111111z"  horiz-adv-x="1024" />

    
    <glyph glyph-name="zhuzhuangtu" unicode="&#59137;" d="M398.222222 497.777778H170.666667v-455.111111h227.555555V497.777778z m-56.888889-398.222222H227.555556V440.888889h113.777777v-341.333333zM682.666667 668.444444H455.111111v-625.777777h227.555556V668.444444z m-56.888889-568.888888H512V611.555556h113.777778v-512zM739.555556 839.111111v-796.444444h227.555555V839.111111h-227.555555z m170.666666-739.555555h-113.777778V782.222222h113.777778v-682.666666zM113.777778 839.111111H56.888889v-910.222222h910.222222v56.888889H113.777778z"  horiz-adv-x="1024" />

    
    <glyph glyph-name="zhexiantu" unicode="&#59138;" d="M56.888889-42.666667V839.111111h56.888889v-853.333333h853.333333v-56.888889H56.888889zM193.422222 247.466667l-45.511111 45.511111L398.222222 537.6l199.111111-199.111111 347.022223 352.711111 45.511111-45.511111-392.533334-386.844445L398.222222 457.955556z"  horiz-adv-x="1024" />

    
    <glyph glyph-name="sandiantu" unicode="&#59139;" d="M768 99.555556c-45.511111 0-85.333333 39.822222-85.333333 85.333333s39.822222 85.333333 85.333333 85.333333 85.333333-39.822222 85.333333-85.333333-39.822222-85.333333-85.333333-85.333333z m-341.333333 284.444444C381.155556 384 341.333333 423.822222 341.333333 469.333333S381.155556 554.666667 426.666667 554.666667 512 514.844444 512 469.333333 472.177778 384 426.666667 384zM682.666667 611.555556c-34.133333 0-56.888889 22.755556-56.888889 56.888888s22.755556 56.888889 56.888889 56.888889 56.888889-22.755556 56.888889-56.888889-22.755556-56.888889-56.888889-56.888888z m227.555555-170.666667c-34.133333 0-56.888889 22.755556-56.888889 56.888889s22.755556 56.888889 56.888889 56.888889 56.888889-22.755556 56.888889-56.888889-22.755556-56.888889-56.888889-56.888889zM227.555556 554.666667c-34.133333 0-56.888889 22.755556-56.888889 56.888889s22.755556 56.888889 56.888889 56.888888 56.888889-22.755556 56.888888-56.888888-22.755556-56.888889-56.888888-56.888889z m284.444444-398.222223c-34.133333 0-56.888889 22.755556-56.888889 56.888889s22.755556 56.888889 56.888889 56.888889 56.888889-22.755556 56.888889-56.888889-22.755556-56.888889-56.888889-56.888889z m170.666667 227.555556c-34.133333 0-56.888889 22.755556-56.888889 56.888889s22.755556 56.888889 56.888889 56.888889 56.888889-22.755556 56.888889-56.888889-22.755556-56.888889-56.888889-56.888889z m-398.222223-284.444444c-34.133333 0-56.888889 22.755556-56.888888 56.888888s22.755556 56.888889 56.888888 56.888889 56.888889-22.755556 56.888889-56.888889-22.755556-56.888889-56.888889-56.888888z m-227.555555-142.222223V839.111111h56.888889v-853.333333h853.333333v-56.888889H56.888889v28.444444z"  horiz-adv-x="1024" />

    
    <glyph glyph-name="dabingtu" unicode="&#59140;" d="M568.888889 827.733333h56.888889v-369.777777h-56.888889zM568.888889 497.777778h364.088889v-56.888889H568.888889zM455.111111 782.222222h56.888889v-398.222222H455.111111zM455.111111 384h455.111111v-56.888889H455.111111zM512-14.222222c-221.866667 0-398.222222 176.355556-398.222222 398.222222s176.355556 398.222222 398.222222 398.222222V839.111111C261.688889 839.111111 56.888889 634.311111 56.888889 384s204.8-455.111111 455.111111-455.111111 455.111111 204.8 455.111111 455.111111h-56.888889c0-221.866667-176.355556-398.222222-398.222222-398.222222zM568.888889 839.111111v-56.888889c187.733333 0 341.333333-153.6 341.333333-341.333333h56.888889c0 221.866667-176.355556 398.222222-398.222222 398.222222z"  horiz-adv-x="1024" />

    
    <glyph glyph-name="ditu" unicode="&#59141;" d="M625.777778 810.666667h56.888889v-682.666667h-56.888889v682.666667zM341.333333 668.444444h56.888889v-711.111111H341.333333V668.444444zM56.888889 839.111111l301.511111-170.666667 301.511111 170.666667L967.111111 668.444444v-739.555555l-301.511111 170.666667-301.511111-170.666667L56.888889 99.555556V839.111111z m56.888889-96.711111v-608.711111l244.622222-136.533333 301.511111 170.666666 244.622222-136.533333V634.311111l-244.622222 136.533333-301.511111-170.666666L113.777778 742.4z"  horiz-adv-x="1024" />

    
    <glyph glyph-name="shangyiyiceng" unicode="&#59157;" d="M113.777778 156.444444v-113.777777h739.555555v113.777777H113.777778z m-56.888889 56.888889h853.333333v-227.555555H56.888889v227.555555zM56.888889 384h341.333333v-56.888889H56.888889zM568.888889 384h341.333333v-56.888889h-341.333333zM455.111111 782.222222h56.888889v-625.777778H455.111111zM648.533333 600.177778l39.822223 39.822222L483.555556 839.111111 284.444444 640l39.822223-39.822222 159.288889 159.288889z"  horiz-adv-x="1024" />

    
    <glyph glyph-name="xiayiyiceng" unicode="&#59158;" d="M853.333333 668.444444V782.222222H113.777778v-113.777778h739.555555zM56.888889 839.111111h853.333333v-227.555555H56.888889V839.111111zM56.888889 497.777778h341.333333v-56.888889H56.888889zM568.888889 497.777778h341.333333v-56.888889h-341.333333zM455.111111 668.444444h56.888889v-625.777777H455.111111zM648.533333 224.711111l39.822223-39.822222L483.555556-14.222222 284.444444 184.888889l39.822223 39.822222 159.288889-159.288889z"  horiz-adv-x="1024" />

    
    <glyph glyph-name="diceng" unicode="&#59165;" d="M455.111111 839.111111h56.888889v-739.555555H455.111111zM722.488889 366.933333l45.511111-45.511111-284.444444-278.755555-278.755556 278.755555 39.822222 45.511111 238.933334-244.622222zM56.888889-14.222222h853.333333v-56.888889H56.888889z"  horiz-adv-x="1024" />

    
    <glyph glyph-name="dingceng" unicode="&#59166;" d="M455.111111 668.444444h56.888889v-739.555555H455.111111zM722.488889 401.066667l45.511111 45.511111-284.444444 278.755555-278.755556-278.755555 39.822222-45.511111 238.933334 244.622222zM56.888889 839.111111h853.333333v-56.888889H56.888889z"  horiz-adv-x="1024" />

    
    <glyph glyph-name="yingwen" unicode="&#59167;" d="M113.777778 782.222222v-739.555555h739.555555V782.222222H113.777778zM56.888889 839.111111h853.333333v-853.333333H56.888889V839.111111zM455.111111 611.555556V668.444444H170.666667v-512h284.444444v56.888889H227.555556V611.555556zM739.555556 156.444444h56.888888V497.777778H512v-341.333334h56.888889V440.888889h170.666667zM170.666667 440.888889h227.555555v-56.888889H170.666667z"  horiz-adv-x="1024" />

    
    <glyph glyph-name="zhongwen" unicode="&#59168;" d="M113.777778 782.222222v-739.555555h739.555555V782.222222H113.777778zM56.888889 839.111111h853.333333v-853.333333H56.888889V839.111111zM284.444444 554.666667v-113.777778h398.222223V554.666667H284.444444zM227.555556 611.555556h512v-227.555556H227.555556V611.555556zM227.555556 440.888889h56.888888v-113.777778H227.555556zM682.666667 440.888889h56.888889v-113.777778h-56.888889zM455.111111 725.333333h56.888889v-625.777777H455.111111z"  horiz-adv-x="1024" />

    


  </font>
</defs>
</svg>
